<svg id="svgElement" width="357.12pt" height="235.831051pt" viewBox="0 0 357.12 235.831051" version="1.1" xmlns="http://www.w3.org/2000/svg" xmlns:svg="http://www.w3.org/2000/svg" xmlns:rdf="http://www.w3.org/1999/02/22-rdf-syntax-ns#" xmlns:cc="http://creativecommons.org/ns#" xmlns:dc="http://purl.org/dc/elements/1.1/">
  <metadata id="metadata2">
    <rdf:rdf>
      <cc:work>
        <dc:type rdf:resource="http://purl.org/dc/dcmitype/StillImage"/>
        <dc:date>2025-03-28T14:49:05.155060</dc:date>
        <dc:format>image/svg+xml</dc:format>
        <dc:creator>
          <cc:agent>
            <dc:title>Matplotlib v3.9.2, https://matplotlib.org/</dc:title>
          </cc:agent>
        </dc:creator>
      </cc:work>
    </rdf:rdf>
  </metadata>
  <defs id="defs6">
    <style type="text/css" id="style4">*{stroke-linejoin: round; stroke-linecap: butt}</style>
  </defs>
  <g id="figure_1">
    <g id="patch_1">
      <path d="m 0,235.83105 c 119.04,0 238.08,0 357.12,0 0,-78.61035 0,-157.2207 0,-235.83105 C 238.08,0 119.04,0 0,0 0,78.61035 0,157.2207 0,235.83105 Z" style="fill:none" id="path8"/>
    </g>
    <g id="axes_1">
      <g id="patch_2">
        <path d="m 112.37943,211.67375 c -3.64096,-5.27069 7.33927,-3.18947 5.32206,-6.33389 -0.88165,-2.53486 -5.86086,-5.93051 -1.25613,-8.46484 -2.35574,0.65645 -9.02198,3.98129 -9.13021,-1.39692 3.54827,-1.46211 5.15952,-6.09505 1.18919,-2.09599 -3.45784,1.45313 -5.57036,2.29597 -9.397399,4.79159 -5.036973,0.58528 -5.332655,-8.39705 -0.244009,-5.27326 -0.753126,-3.05141 0.118,-7.15228 -3.060194,-8.04143 -3.242635,0.003 -8.279835,-1.03843 -7.844597,-5.68696 -2.366104,-1.86774 -9.924131,-0.58992 -8.804732,-6.3302 -2.584415,-0.73767 -5.466652,-8.10669 -3.464908,-2.45628 -0.04246,6.68925 -7.285947,2.07715 -5.871994,-2.571 -4.112146,-5.54142 0.973006,4.80565 -4.650501,4.00072 2.192522,4.83519 -6.155875,4.23602 -7.332609,1.4674 0.117898,-3.69495 -5.870607,0.77971 -5.877454,2.87771 -2.101107,5.70556 -7.948571,-0.0126 -7.692627,-3.76208 3.491917,-3.82583 -1.322383,-6.42303 -2.540234,-1.30557 -2.355923,4.52781 -6.472589,-1.15918 -8.962923,-2.12609 -0.01472,-2.00065 -4.221255,-5.2596 -7.27333,-4.31602 -5.234455,1.24103 -6.399296,-6.27005 -0.197851,-5.48332 2.04416,1.88349 8.892729,-5.11894 3.054014,-4.42737 -0.376027,-4.3473 -3.593415,-4.58425 -7.169319,-6.74938 -3.560384,-6.38751 6.002355,-2.73291 4.331888,-8.28244 2.503886,-3.81973 -3.173947,-4.19766 -4.606355,-7.23916 -4.037171,-2.08665 -2.93241,-7.29808 -2.257867,-8.6796 -1.015715,3.56216 -7.274412,5.07343 -5.621649,-0.89361 2.864926,-2.4743 3.749533,-8.25925 -2.051647,-6.50751 -5.4283333,-0.97906 -5.0500074,-4.3119 -4.942342,-8.26121 -3.4042313,-2.62865 -0.157852,-7.67703 -2.197285,-10.034387 -4.12035036,0.468901 -4.8321577,-7.185065 -2.220623,-9.316471 5.6704594,-1.172481 0.4950391,-5.003038 4.719155,-7.877185 3.5028461,0.279314 6.105233,-2.697351 7.03121,-4.289284 -1.721704,-5.233699 3.686155,-6.49297 2.25422,-10.096718 C 12.69092,64.93401 11.25947,60.068452 8.388969,60.187713 4.3730934,57.188981 10.131978,52.857589 5.792056,49.660471 9.7966081,46.29483 9.7610542,44.704366 4.353031,45.607989 2.3521186,42.393794 6.0670842,37.710429 7.883741,37.6403 c 1.2372586,-4.769969 6.410455,-0.749951 9.97726,-1.341662 3.202965,-4.029284 4.607152,2.009566 8.218725,-0.0372 0.667742,-4.147743 6.153411,-4.472402 9.053151,-2.502277 1.121642,-0.200975 0.587988,-8.910965 4.8913,-3.598904 3.652361,0.442764 6.938159,-3.103678 10.405332,-1.186732 -0.417567,-5.809615 6.864755,-2.580953 4.746786,1.809369 1.988369,3.390802 6.286866,5.474552 3.949738,-0.06227 -2.339367,-4.565561 6.819721,-7.410659 7.826719,-2.755008 2.988684,1.072152 7.788714,3.465378 8.639138,6.638296 0.519659,-0.458766 4.982499,3.020423 6.986465,5.311953 0.381202,4.706306 2.970445,7.058042 7.340111,8.104569 3.231712,0.729365 5.148864,8.710463 7.196926,5.000245 5.020608,-2.01909 7.267058,5.569857 1.996005,6.402656 -0.737673,2.801853 4.500883,5.002789 4.086943,8.675682 -2.85998,3.034625 -5.117498,6.326543 0.80713,6.114615 4.48922,-3.968962 3.65213,3.197568 6.02514,4.798468 -3.44884,3.155345 -3.86167,1.747698 -2.06302,7.016475 2.24959,-2.792846 6.99194,0.416938 8.55938,-1.886251 3.08488,-2.776005 6.74288,-2.533177 6.53086,2.445763 -0.39182,4.7118 -6.62518,1.52345 -1.92455,7.357289 -2.42662,3.704954 -5.53596,3.500875 -2.07222,7.111564 4.95676,-2.493893 2.57554,7.20058 6.19515,1.22378 -0.1785,-3.385018 2.32533,-6.934087 4.79182,-9.543953 2.20439,-2.041493 9.58003,-1.722744 7.85946,-5.186054 1.65199,-6.916544 6.68488,4.311465 7.97013,-0.09508 4.12016,-4.145409 6.22381,3.274989 8.98356,-1.657124 4.15079,1.386276 1.8887,6.840197 1.83121,9.35975 1.34896,2.648629 6.24589,5.599608 3.98343,9.472258 4.21057,-2.23717 1.92125,-4.45863 0.34683,-8.049085 1.44272,-3.484366 7.03933,-2.853029 7.95143,-7.181552 -3.04742,-1.678366 -7.71193,-2.745766 -6.21442,-7.471405 3.31874,-2.922045 1.46435,-8.358875 5.3815,-9.804076 2.4068,-3.865455 -4.44982,0.69603 -6.84802,-0.774549 -1.96636,-1.957349 0.77695,-9.860949 -3.73031,-7.233218 -4.43405,-0.54377 -5.20488,-4.898233 -5.49435,-8.14362 3.00347,-2.928977 3.2891,-4.564005 4.8367,-9.049596 -4.79308,-2.427722 1.46547,-7.672869 -3.08326,-9.813339 -5.72202,0.449422 -3.8174,-8.326962 1.21881,-7.271674 3.62469,1.143334 7.21747,0.398999 11.04068,-0.647697 0.39921,-5.034938 8.3957,-2.69643 7.33543,1.900222 -4.48766,4.915792 1.15178,1.643874 2.28258,-1.475522 -0.7823,-4.738244 -0.35184,-5.221517 -5.79592,-5.865146 -1.67246,-5.497437 5.81101,-5.088244 8.37598,-2.316255 3.25149,3.426824 3.28661,-5.729937 7.83737,-2.552513 4.84579,1.232519 2.90329,-5.640701 7.07544,-5.920571 4.41847,0.778934 5.82307,5.113083 2.56441,6.472612 0.24462,2.409699 4.41445,-2.430824 5.83934,-3.624683 2.54224,-1.073207 8.4762,3.755251 6.70452,-2.128889 -0.81518,-4.3366751 9.25404,-3.9964501 7.55249,0.481618 -2.41452,5.203658 4.44669,0.612097 3.72128,-2.928065 1.28479,-2.6045999 2.46612,-6.2936485 1.09309,-9.591108 2.82951,-4.5067982 7.15521,1.2058191 6.02268,3.130473 2.24229,-3.2984432 7.61806,0.072792 7.23912,3.787505 -0.47239,5.21136 4.6111,2.992793 6.85967,5.592536 1.96288,5.477549 -5.01516,5.412784 -1.08154,8.769029 -0.1731,1.813175 6.26651,-4.020948 6.2836,2.916284 -0.27709,4.116011 -9.38602,1.379672 -5.43184,5.878935 2.89485,1.004893 2.30451,7.349345 1.14037,7.028057 2.41005,-1.8201 11.04139,-2.627734 7.71826,2.801308 -5.67023,0.894075 -1.37741,4.996077 0.39842,-0.268404 4.31325,1.526305 5.26566,-4.135613 9.98005,-3.526262 6.30393,2.979323 -0.2331,6.122107 -0.74861,6.203219 0.12345,3.109348 0.0293,7.25648 3.96224,7.241416 4.94885,-1.396825 5.95292,3.418988 7.65629,6.250529 2.569,-0.291374 8.98032,1.083824 7.75828,5.487236 2.54801,0.878714 5.49556,8.038505 3.53082,2.392186 0.0392,-6.684011 7.27473,-2.057375 5.86592,2.577111 4.11715,5.329139 -0.88551,-4.216014 4.36131,-4.070797 -1.50972,-4.094662 5.12472,-4.202637 7.38732,-2.023499 0.0375,4.896611 4.86224,-0.07341 6.10996,-1.52029 0.89839,-6.20625 7.51882,-1.676626 7.75682,2.414091 -3.25713,3.502605 0.71468,7.922905 2.25889,2.187109 2.42585,-5.276364 5.86949,1.111668 8.96284,1.232536 -0.21016,2.472223 4.03367,5.513248 6.93411,4.694521 4.67181,-0.8749 8.04194,5.013945 1.51616,5.815985 -1.82284,-2.907972 -9.42552,4.792426 -4.77202,3.881032 1.83442,3.233494 2.47752,5.51254 7.10971,6.419468 4.89096,4.551914 -2.45668,5.203398 -3.31963,6.849251 -1.95035,5.312545 0.39509,4.992582 3.39515,8.991366 2.64852,1.2888 6.2576,6.76301 2.01893,8.52981 1.88789,0.74126 6.27424,-7.12808 6.62771,0.0273 0.28326,4.0017 -5.60903,4.95308 -0.89016,8.37962 2.50012,-1.22668 10.66625,1.14895 7.20073,5.19128 -0.0108,3.21247 4.05441,6.13835 2.15474,9.82292 -1.45982,3.53541 5.746,2.98345 4.48734,8.08828 1.53331,5.32089 -7.20301,4.35905 -4.3429,8.23575 0.52448,5.57074 -6.50381,2.17206 -7.28188,6.50231 -4.6604,-1.01785 0.87797,7.84764 -3.79431,8.71216 -2.74912,2.5278 3.19195,4.99291 4.70782,7.38051 1.28736,2.36361 6.32682,3.76709 3.06096,8.46388 4.88926,3.83767 -2.25467,5.50214 -0.71863,8.71306 5.13125,-3.91236 5.24688,2.81488 3.39219,5.90386 -3.79599,0.75495 -3.80456,5.15195 -8.96187,3.26755 -3.35763,-2.97613 -7.3871,4.29193 -8.76491,-1.43808 -3.58119,0.72993 -4.06918,3.56057 -7.99394,4.84069 -4.77273,-2.79839 -5.46326,-1.30863 -5.54032,3.19002 -3.76725,-0.14349 -6.65578,-2.15006 -10.50877,0.64587 -4.3044,-3.92739 -4.45914,6.70322 -8.26942,0.89752 0.58023,-4.13886 -1.83425,-5.47488 -4.55868,-7.33208 0.91238,3.32124 1.87966,9.1268 -3.65098,9.2103 -3.64261,-1.31927 -5.97351,-2.93073 -9.03696,-5.7838 -4.8148,-1.85139 -1.47573,-4.43545 -6.76227,-4.79266 -2.89956,-2.95169 -3.97285,-6.56751 -6.08066,-9.77374 -3.19611,-1.41119 -6.59648,-3.0628 -8.99026,-5.96426 -0.9659,-6.52083 -3.62934,2.26412 -6.73295,-2.00483 -5.56011,-3.46433 6.60183,-5.55053 0.49664,-8.31377 -2.0946,-2.65142 -4.31591,-7.64662 0.68913,-9.06473 0.52235,-5.70688 -5.87553,-0.18329 -8.08544,-2.6141 0.2821,-2.65473 -4.57748,-8.33611 1.93511,-6.85059 -1.9187,-3.21261 -1.36163,-7.46869 -5.40132,-3.61837 -3.86031,-1.62912 -5.51376,-0.35305 -8.21535,2.51438 -3.86419,0.56589 -4.98836,-8.7355 -0.26313,-7.72904 1.87379,-0.35574 -3.56047,-6.02397 1.46565,-7.60101 3.8655,-2.14284 -2.82196,-3.39691 -4.26235,-5.2014 -0.0316,-5.38532 -2.63037,2.08152 -3.44542,3.7682 -1.08535,3.40643 -3.9953,7.51001 -8.07806,7.31936 -5.5193,0.56133 -2.08499,5.56504 -7.05508,5.76176 -2.9362,-5.33945 -4.27345,-1.39575 -8.28202,-0.58238 -2.51095,-4.87828 -5.87929,3.97227 -7.50033,-2.47332 -1.12858,-3.76326 2.57617,-6.9136 -1.84287,-9.45002 -4.09699,-1.49152 0.25483,-9.57317 -3.75374,-4.67353 -2.46175,1.18702 5.33529,8.00542 -1.0788,8.36274 -3.56729,1.78524 -7.15348,5.1033 -1.78355,7.19566 4.71632,-0.31472 3.13832,6.85433 0.41754,8.67452 1.79033,5.04358 -5.79203,5.82305 -2.43828,8.51422 2.91785,-3.03664 7.76227,-2.40167 7.40891,2.46827 -1.79151,6.46908 5.02072,1.32292 6.48348,5.73704 1.9957,1.93688 3.01158,8.60312 -1.72745,8.32732 1.67144,3.25136 -3.60858,6.77877 0.93519,9.31078 -2.35831,3.64668 -0.79442,7.6035 3.75979,7.88049 2.79355,5.20391 -3.61483,6.88606 -7.03104,6.06145 -3.12988,-0.32047 -8.16818,-0.62847 -9.19273,3.24332 -4.09248,2.89299 -9.05105,-4.0109 -4.42302,-6.25859 -0.99848,-2.32611 -5.13454,3.75209 -2.96839,6.04985 -4.27489,5.28177 7.44238,0.0762 4.64207,6.07751 -2.35751,4.0599 -7.79902,0.36897 -10.24102,-1.43174 -0.89371,4.71712 -4.80058,4.0691 -8.32099,3.64978 -1.69831,2.71546 -2.88603,8.2449 -7.05109,4.729 -6.52629,-1.51345 2.52535,-4.9917 -1.13061,-6.48361 -1.46496,2.68808 -5.11853,5.35664 -8.08147,5.15461 -4.03923,-4.34884 -3.3193,2.54711 -4.90338,4.806 -3.84139,1.00763 -8.67443,-1.27576 -5.07337,-5.18125 -4.32262,-2.71727 -3.6642,4.7463 -5.58613,5.95297 -1.81601,3.801 1.10546,7.5565 -2.26987,10.10145 -5.91327,1.59808 -1.84067,-8.12484 -5.74019,-3.3589 -4.06731,0.39125 -6.32954,-4.07825 -5.78048,-7.96682 -2.55734,-2.11023 -7.95063,-0.26867 -6.45594,-5.882 1.41934,-3.58801 3.60509,-3.76123 0.15026,-6.7555 -0.22471,3.3008 -4.5763,2.81622 -4.83215,-0.18262" clip-path="url(#pd9700eb583)" style="fill:none;stroke:#000000;stroke-width:0.7;stroke-linejoin:miter" id="path11"/>
      </g>
      <g id="patch_3">
        <path d="m 256.72506,101.25332 c -1.99033,-2.34895 1.7614,-4.9942 3.53429,-3.116159 -0.004,-1.512015 1.7191,-2.501029 -0.24769,-3.449624 -1.5371,-1.57949 0.44746,-3.555657 1.49462,-3.999766 -0.86656,-1.576592 0.3712,-3.144626 0.46593,-4.729174 1.1037,-1.937425 3.08732,-0.448243 4.3,-0.151583 1.48455,-0.157826 2.93863,0.226769 4.04842,0.999078 1.20742,-1.193107 0.85911,-3.325836 2.6847,-3.975362 1.79697,-0.505494 2.61111,1.426361 4.30631,1.403138 1.35063,0.958888 3.98409,-0.01896 4.59161,2.025051 1.31898,0.529702 1.3616,-1.922666 2.41752,-0.377647 0.95155,0.22746 1.71553,-0.01923 2.50077,0.219937 1.31439,-0.804695 1.50945,-1.275572 1.65767,-2.789055 0.85725,-2.128715 3.72701,-0.831017 4.2703,-0.04923 0.13205,-2.89975 4.1144,-2.066948 4.57812,-0.749228 0.85863,-1.118105 2.998,-2.04366 3.02523,-3.270632 -0.86979,-1.331537 -1.51549,-2.952523 -3.53564,-2.738088 -1.17761,-0.244636 -1.88266,1.81553 -2.12956,1.894633 -0.38879,-1.098612 -1.69828,-1.080056 -2.51053,-1.268025 0.46261,-1.741316 2.08862,-0.971395 3.23629,-1.619792 1.55207,0.693218 3.44482,-2.428852 4.43839,-0.06112 0.39492,-2.629074 4.05869,-2.459797 5.73869,-1.421384 0.93753,1.338911 2.76298,2.920572 1.64557,4.620554 1.09736,0.85043 1.77631,1.567713 2.97447,0.34019 1.52542,-1.668676 -0.23951,-3.218892 -1.44049,-4.230853 1.31635,-0.802648 3.59326,-0.882793 3.5528,-2.943938 1.7832,-0.280032 2.38513,-2.756146 1.12436,-3.900832 0.95305,0.590866 1.30059,1.975874 1.46361,3.093098 0.52336,0.83428 1.43619,1.114885 -0.0179,1.601632 -1.72708,1.539783 0.4147,2.947011 0.32763,4.473509 -1.38819,-1.978098 -5.39296,0.23953 -2.70421,1.894176 -0.47406,2.245517 2.82341,-0.934405 3.66221,1.260617 0.68229,0.970964 0.20853,2.110001 1.22127,2.697904 0.72261,0.926888 1.09689,-1.833762 1.73447,-2.40379 -0.55042,-1.323988 -3.99197,-3.43515 -1.24881,-5.31542 0.98845,-0.950762 1.93755,-3.442081 4.00872,-2.21038 2.00015,0.865704 0.81382,3.129744 0.54375,4.220708 0.68142,0.946568 0.45165,-1.103633 0.99533,-1.453158 -0.50417,-1.879935 3.31099,-0.963843 3.41417,0.417165 0.68163,1.407055 -0.54849,3.309793 -0.53143,4.209376 1.6538,-0.124818 3.55223,0.601541 3.67056,2.566455 -0.62362,1.398018 -0.30752,2.200237 1.3328,1.890351 1.31525,1.256721 2.8964,1.797819 4.51356,2.495053 1.50449,1.776907 1.3398,5.952028 -1.92929,5.190005 -1.17433,-1.176299 -2.69266,0.896496 -1.77021,1.904103 -0.55438,1.430847 -0.20062,3.358038 -1.53615,4.347423 1.18057,0.610105 3.25617,0.346854 3.39135,2.30743 1.38266,0.82756 1.30152,2.26494 3.05079,2.46112 1.51135,1.06299 -0.0948,3.00871 1.9371,3.35114 1.76158,1.59159 -0.21676,3.88217 -1.60213,4.19552 1.08525,1.84856 2.66397,-0.5087 2.59094,-1.95084 1.74361,-2.72808 5.73041,0.55608 3.69524,2.84915 1.20593,2.19323 -1.27756,3.33291 -2.80846,3.71047 1.34632,1.21577 0.2082,2.86919 2.0424,3.57644 0.74385,1.71633 2.84709,-1.4582 4.12881,0.36888 1.165,1.38369 4.87454,0.73229 4.25402,3.72963 -1.05361,1.41374 -0.91769,1.76781 -0.262,3.34907 -1.05527,1.6328 1.34093,2.02704 1.30919,3.71782 1.80157,1.52636 -0.0122,3.55029 -0.35671,5.22303 -0.58391,0.87395 1.2764,2.09937 2.22923,1.62452 2.39822,0.0938 1.7447,2.71631 2.20866,3.98929 0.85425,1.78433 0.66599,4.88974 -1.47298,5.66702 -0.0787,1.76063 -2.96206,1.52355 -3.04088,1.67709 0.40578,1.77946 1.89596,4.63192 -0.85261,5.44049 -0.82222,2.05627 -3.36356,-0.0245 -4.08361,0.94986 0.43689,2.24559 -2.63725,2.80944 -3.58851,2.38282 0.63451,2.37595 -0.56744,4.58723 0.21055,6.89874 -0.002,1.62965 -2.34173,1.8282 -2.88684,1.95137 0.531,1.34212 0.50099,3.71507 1.69615,4.3339 2.5108,-0.004 4.32073,2.7304 4.01121,4.76421 1.24766,-0.0541 3.70892,-0.29176 3.90531,1.86959 1.23356,2.30467 -2.26348,3.13778 -0.90831,5.41717 -0.063,1.17581 2.88447,1.87082 1.69811,3.84383 -0.51804,1.85728 -3.34456,0.80855 -3.3574,2.8272 0.73633,1.41117 1.40707,1.80262 2.42565,0.33444 2.83425,-1.49361 4.65742,2.94507 2.09049,4.32879 1.33176,2.23171 -1.93751,4.16559 -3.24218,3.21422 1.17402,2.85597 -2.92415,4.00036 -4.2532,2.28185 -1.92641,0.95642 -4.20119,-0.90442 -5.97647,-0.2178 -0.8163,3.11966 -4.98294,0.91872 -4.60863,-0.71506 -0.50967,1.46431 -2.81727,0.72486 -3.14946,0.89917 0.18878,2.73718 -2.98394,2.21113 -4.28666,3.68779 -1.95753,0.57373 -2.57058,-1.7312 -4.44161,-1.26395 -0.85132,-1.32692 -1.95894,1.17062 -0.97113,1.68003 1.6521,2.84177 -3.43395,4.9106 -4.23272,1.72039 -1.52987,0.32903 -2.71558,-0.7306 -3.93699,0.54505 -1.07658,1.62147 -3.79227,1.4893 -5.25197,0.58569 -1.28113,-1.15485 -1.60538,1.03227 -1.49153,1.98901 -0.99459,2.63873 -5.08511,1.13683 -4.42429,-1.46617 -0.48028,-1.37587 0.38064,-2.54832 -1.01225,-3.57102 0.19705,-1.96334 -3.19003,-0.66684 -3.49674,-2.74872 0.18411,0.93157 0.74963,2.77346 0.0129,3.65459 1.96242,1.25292 0.72298,3.8599 -0.96385,4.44708 -1.14546,1.97137 -3.7042,0.91254 -5.32182,0.42821 -0.87456,-1.32504 -0.81259,-1.91521 -2.55278,-1.61978 -1.80574,-0.89907 -2.53243,-3.17406 -4.42538,-3.77579 -2.12411,0.54975 -3.71227,-2.4345 -2.06296,-3.88547 -1.47188,1.55505 -4.08815,0.68932 -4.4067,-1.39767 -0.95377,-1.26806 -1.38015,-2.32595 -2.96835,-2.78587 -1.50173,-1.82086 -0.2716,-5.1913 -2.62647,-6.01213 -0.5933,-1.47633 -2.51844,-0.3537 -3.37475,-1.72626 -1.97417,-0.001 -1.93473,-2.34255 -3.86453,-2.24201 -1.0133,-1.12445 -2.3103,-2.45215 -2.34632,-3.81937 -1.16594,-0.2871 -1.60491,-2.25846 -1.86501,-0.1527 -1.64724,2.70675 -4.97904,0.0287 -5.84971,-1.87245 -0.5824,-1.99627 1.75555,-2.56573 2.74524,-3.11011 1.37133,-0.91598 0.813,-1.4008 0.57298,-2.8025 -1.15957,-0.22911 -2.67918,-1.66892 -2.1821,-3.17834 -2.2217,-0.65627 -2.40509,-3.32259 -0.88606,-4.66996 0.20012,-1.97147 3.42706,-1.50867 2.43414,-3.48912 -0.62181,-1.91918 -2.91378,-0.30051 -4.20169,-1.20158 -1.45455,2.97232 -6.01595,-0.16053 -3.76289,-2.58236 -4.10939,-0.3951 -1.30263,-6.6603 1.80302,-4.0328 -1.32999,-1.0634 -0.74219,-2.75967 -1.91166,-3.92342 0.51691,-1.07923 -0.34801,-1.97605 -1.11272,-1.34656 -0.86106,2.27134 -4.10042,1.82923 -5.74364,0.90173 -0.64377,-1.51881 -1.39732,2.23816 -3.18659,1.20314 -0.14749,2.98132 -5.32245,2.577 -4.62265,-0.6216 0.99739,-1.38799 -1.85034,-3.2359 0.31737,-4.69567 1.1255,-1.67406 4.02183,1.4461 3.03988,-1.27365 -0.52961,-1.58417 -3.06172,-2.95624 -1.14717,-4.81837 1.36674,-0.64729 1.89675,-2.44426 3.60114,-2.49525 -0.17479,-0.6408 -2.99941,-1.57046 -2.05403,-3.37743 -1.99748,2.20044 -5.44997,-1.26478 -3.24215,-3.25416 -1.38743,0.36491 -2.07069,0.15227 -2.53283,1.70473 -1.31953,0.73963 0.91784,3.07321 -1.16479,3.90896 -2.18596,0.42614 -0.83612,3.24412 -2.3605,4.40338 -0.76495,1.38179 -2.39401,2.18198 -3.81615,2.68656 -1.63698,-0.78669 -2.34804,0.36992 -3.23831,1.6118 -0.8921,0.79049 -3.3315,-0.28735 -3.36511,0.92541 2.6895,2.62624 -2.774,5.90133 -3.82329,2.2905 0.0532,-1.26653 -2.07329,-0.63162 -2.25131,-1.97486 -1.57161,-0.13931 -0.94033,3.04477 -3.18772,2.62657 -1.6349,-0.17252 -3.99947,0.56117 -4.23035,-1.93696 -0.56796,0.39014 -1.77131,3.54733 -3.79418,2.08307 -2.17388,-1.19942 -0.30312,-3.74986 -1.71289,-5.37013 -0.34157,-1.77963 2.17188,-2.03995 0.98735,-3.68765 0.45225,-1.85747 -2.67681,-1.37737 -2.41736,-3.41812 -1.80076,-1.28153 -2.94151,-3.97701 -1.52485,-5.81914 -0.45672,-0.37624 -1.34273,2.38299 -2.83373,1.86012 -1.03134,0.97315 2.22411,2.1389 0.92856,3.76889 2.7646,0.94063 1.11244,5.47452 -1.64144,4.34065 -1.12665,0.30642 -1.23179,2.41219 -2.90281,2.1535 -1.48958,1.29052 -3.06473,-0.7601 -3.85087,1.33048 -1.28615,1.45204 -2.05172,-0.59755 -3.36392,-0.50013 -0.93557,-0.4523 -1.13632,-0.98702 -1.0828,-2.00694 -0.50679,-0.93026 -2.22503,-2.29324 -1.30275,-3.3307 -2.19161,0.2058 1.34483,-1.06332 0.54256,-2.15576 -0.52538,-1.47026 2.69377,-2.12088 1.17696,-4.07864 -0.63416,-1.32709 -2.55754,-1.58335 -3.57373,-0.61871 -0.19983,-1.17956 -0.42891,-2.23299 0.0259,-3.34849 -1.03067,-1.92776 2.17873,-2.28709 2.05502,-3.61835 -1.1348,-1.19437 -1.95554,-2.55191 -2.84195,-4.02527 -0.40662,-2.56699 2.3242,-4.01643 2.16148,-6.58501 -1.5928,0.60556 -2.04195,-1.66764 -2.90022,-2.43504 0.22128,-1.8048 3.11386,-2.07926 1.32199,-3.96945 -0.31045,-1.27835 0.39125,-3.26521 -0.26627,-4.16623 -2.94223,2.31426 -5.32948,-3.05282 -2.20557,-4.11184 -1.05432,-1.881134 2.49368,-2.580075 0.57554,-3.715547 -0.36084,-1.466324 -2.41248,-2.745431 -1.11933,-4.445952 -0.59077,-0.784453 -1.09837,0.911534 -1.46672,-0.04033 -1.34847,-0.488297 -2.67798,-1.666621 -3.806,0.0993 -0.3026,1.609807 -1.46534,-0.203151 -2.4486,0.320235 0.0329,-1.100543 2.0112,-2.104218 0.66449,-3.04956 -2.0969,1.058893 -2.28752,-2.290479 -4.00836,-1.570105 -2.25201,-0.126824 -2.33673,-2.896883 -1.52541,-4.15854 -1.24648,-2.672311 2.5378,-3.756402 2.36897,-6.147512 1.51777,-1.019886 -1.01441,-3.477124 1.41137,-4.466993 0.69031,-0.530165 2.97279,0.316759 2.30044,-1.001493 -1.30778,-0.157699 -1.32902,-2.480046 -2.3018,-0.684159 -1.42653,0.312734 -2.37657,0.594005 -3.66667,1.28901 -2.16501,0.313648 -2.72703,-2.200424 -2.46681,-3.587188 -1.0259,-1.487016 0.18912,-3.76089 -0.94358,-5.056514 -1.93876,0.868025 -5.07608,1.328402 -5.25216,-1.575398 -2.46366,0.122909 -2.69773,-3.1822 -1.56349,-4.258823 -2.12017,-1.694125 0.14054,-4.807378 2.42189,-4.071525 -0.46746,-0.841409 -0.80635,-3.406966 0.99366,-3.914982 -0.47127,-1.76301 1.60884,-3.636462 -1.08442,-4.3029 -1.30581,-1.191606 -0.51673,-3.22045 0.81226,-3.891435 -0.72884,-1.796555 -0.44824,-4.716756 -3.0247,-4.378983 -3.10487,0.374693 -3.11817,-3.712498 -2.15035,-5.573266 1.36402,-0.853738 2.96018,-1.480568 4.59121,-1.451394 1.18284,1.481202 2.86471,-0.801928 4.18601,0.800995 1.42952,-1.390541 3.04847,0.282897 4.35978,-1.173336 1.36933,0.108248 2.45694,-0.227968 2.28975,-1.84389 1.1434,-1.758464 3.7256,-1.146382 5.3866,-0.856251 1.01715,1.12809 1.46988,2.747932 1.66937,4.218103 -0.0125,1.416804 -4.13373,2.945921 -1.0976,2.605378 1.06765,0.696197 1.87937,-1.962798 2.53444,-0.03565 1.11672,0.906327 2.64894,-0.207208 3.50263,1.218907 0.49412,0.605098 -0.40515,1.996888 0.69588,2.556617 -0.42403,0.33006 -1.38726,-2.116566 -2.56242,-1.540776 -2.02085,-1.830083 -5.17545,1.388734 -3.09462,3.349695 -0.12454,1.975513 2.02061,2.319149 3.3242,2.27384 0.30311,0.834078 2.12764,0.241898 2.14253,0.516989 -1.05726,1.70643 0.49819,3.657678 1.74369,4.677746 2.20301,-0.370853 0.0611,1.492536 0.92569,2.467608 -1.64393,-0.63417 -2.63972,1.601333 -4.25314,0.360548 -2.83512,-0.135746 -3.06114,4.647306 -0.0403,4.57966 -0.0732,2.267232 3.19803,1.121108 3.32198,-0.508594 1.67448,-0.09166 1.73703,2.090069 3.26527,2.261845 1.15016,1.716801 3.58794,1.14418 5.05514,2.416512 1.10345,-0.06992 0.52178,1.951268 1.69612,2.209374 0.32758,0.593675 1.17501,1.161076 0.29727,1.79463 -1.8031,-1.590048 -4.8432,0.896029 -3.36906,3.003225 -0.48894,0.939033 -1.7652,1.661873 -2.58021,1.935043 -0.75756,1.355877 -1.16686,1.502805 0.21262,2.545398 0.62063,1.716026 -0.91384,3.40247 0.34573,5.061588 -0.82996,1.445208 -0.59368,3.797606 1.41506,4.150637 -0.70978,1.991481 0.51042,-0.699543 1.64241,-0.392439 0.85775,-0.65989 2.38987,0.175661 3.03508,-1.072144 1.77012,0.653905 2.88782,-1.201684 3.12389,-2.514671 1.34954,-0.824672 0.64538,1.797622 1.87373,2.107158 0.54496,1.568223 1.07968,4.003413 3.39262,3.442107 1.31834,0.936387 2.46639,-0.302619 3.32615,-0.910027 1.7569,-1.395581 0.65059,1.406542 2.03628,1.669322 1.70711,1.286364 4.177,-0.719309 3.44534,-2.632891 1.21795,-1.208502 2.49947,-2.279057 4.04116,-3.05152 0.13463,-2.910388 3.65717,0.25581 4.31207,-2.538782 -0.39719,-1.45991 0.9358,-2.077385 1.97977,-1.231471 0.12581,1.41137 3.69351,0.824533 2.17074,2.515756 -0.48235,1.978875 1.95306,4.129321 3.66387,3.836326 -1.26878,1.104544 -2.85436,0.815562 -4.27947,0.343554 -2.89981,0.169326 -2.5258,4.704109 0.24819,4.601372 0.81036,1.763532 2.69675,1.036909 4.06254,1.844702 1.07021,0.472818 0.0943,2.808925 1.43975,3.46289 0.66194,0.683627 1.79476,0.433985 2.5414,0.577749 -1.15879,1.979208 1.54447,2.830902 1.47496,4.654616 1.60658,0.660856 0.60101,1.220074 0.37713,2.410022 -0.21482,2.279974 2.41604,1.672328 3.1028,3.259332 1.60922,0.961407 3.54956,-0.477656 4.67784,-1.525937 0.66032,-0.711911 -0.55475,-2.660836 1.21666,-1.504295 2.04684,0.771285 0.77648,3.895629 1.07428,4.575699 1.53896,-0.91222 1.44951,-2.92408 0.11561,-3.923501 0.12482,-1.118308 -0.69771,-2.48013 -1.89604,-1.735564 0.47317,-0.990697 1.03972,-1.826259 2.27496,-1.285062 2.71343,-0.434902 2.11199,-4.462947 -0.26771,-4.576103 0.10995,-1.150288 0.22676,-2.853072 1.92206,-2.474542 1.31682,-1.301405 0.26359,2.314598 1.98612,1.903156 0.69256,0.604258 2.32715,-0.719901 1.67153,0.848626 0.45548,0.544884 1.00703,-1.245191 2.10405,-0.594675 0.75386,-0.523221 1.28152,-0.960437 1.98628,-0.151295 0.94781,1.07629 2.54188,-1.056953 2.54664,0.890654 0.68202,1.253511 0.75468,3.052687 -0.067,3.988507 3.21892,0.546502 1.86211,4.505205 0.37125,6.034528 -0.74968,0.666561 2.46416,1.096661 1.68851,2.586321 -0.94826,2.32003 2.03248,-1.32102 1.24052,-1.17029" clip-path="url(#pd9700eb583)" style="fill:#1f77b4;stroke:#000000;stroke-width:0.7;stroke-linejoin:miter" id="path14"/>
      </g>
      <g id="patch_4">
        <path d="m 212.53891,64.913048 c 0.94677,0.671781 3.29633,-0.308915 3.61435,1.785134 0.5745,0.903735 -1.2872,1.237242 -1.76936,1.373245 -1.21309,-0.46936 -2.54653,0.487648 -2.89282,1.530663 -2.35755,-2.497268 -5.96736,2.306905 -2.49134,3.736684 -0.80014,1.613521 1.03404,3.254231 2.29313,3.222216 -1.41304,1.088154 -2.66213,2.059572 -2.59989,3.940221 -1.14852,2.423248 -4.52872,0.683366 -4.47402,-1.099037 -1.59149,0.324534 -2.67178,2.135288 -4.51674,1.218761 -2.76082,0.104998 -2.47892,-3.334009 -4.01671,-4.75228 -0.6915,-1.040022 0.90201,-3.53551 -0.91322,-2.178574 -1.45863,-0.07957 0.91178,2.626971 -1.01507,3.42437 -1.46478,0.551557 -2.62175,0.744537 -4.06247,1.364409 -1.51012,0.06388 -3.88087,1.332005 -4.56238,-1.117085 -1.07285,-1.530863 2.20816,-2.482328 0.2776,-3.416781 -1.38918,-1.643985 0.81565,-3.388414 1.59362,-3.833761 -1.08947,-1.957259 1.5432,-2.667939 1.84434,-3.834539 -3.61222,-1.252164 -0.32989,-6.06282 2.23385,-4.178223 0.76579,-1.490212 -1.99364,-2.1716 -1.68909,-3.752393 -1.73341,-0.90445 -3.90453,-0.883705 -5.39035,-2.275556 -1.43453,-0.294705 -1.95062,-2.680238 -3.41779,-2.301824 -0.34199,1.778052 -3.47726,2.359512 -3.45879,0.344124 -3.71039,-0.32234 -1.64912,-6.259511 1.45748,-4.24063 0.77606,-0.423554 2.63078,-0.874444 2.90404,-1.005336 -0.0623,-1.528439 0.76223,-2.216551 -1.21523,-2.355589 -1.36701,-1.043874 -1.8971,-3.788089 -1.59974,-4.50662 -1.45618,-0.132527 -2.54377,-0.668476 -4.01393,-0.735375 -1.45944,-1.332306 -2.99155,-4.845636 -0.21899,-5.813779 1.74782,-0.392029 3.95037,1.236725 4.66229,1.971108 -1.0295,-1.124163 -0.0686,-3.258647 -2.0643,-3.335981 -2.93793,0.981659 -4.12238,-3.815098 -1.23624,-4.496272 0.84745,-1.347258 1.47879,-1.360625 0.011,-2.481827 -0.35354,-1.561693 0.22187,-2.535352 -1.69483,-2.959254 -4.4542,2.966607 -6.04634,-4.467146 -1.5299,-4.940201 1.30655,0.602454 2.30877,0.656887 3.71277,0.861752 1.17445,1.129717 3.12159,1.542618 3.94261,2.561487 1.20995,-1.644786 1.59076,-5.249361 4.5037,-3.926871 1.06297,0.822938 2.69014,-0.25532 3.81723,0.294173 -0.59385,-1.727405 2.06742,-2.269892 2.09566,-2.893694 -1.29475,-2.760723 3.41131,-4.56734 4.28764,-1.643634 3.88224,-1.400842 4.00699,5.248253 0.30763,4.50289 1.10062,0.796369 0.91884,3.006183 2.41035,1.164008 0.49446,-1.168499 1.68687,-2.8132 3.31458,-2.403726 -0.44735,-3.151386 4.46369,-3.296532 4.68603,-0.480282 0.80303,-0.399867 2.17049,-0.966222 2.86135,-0.739707 0.42095,-1.386246 0.45167,-2.00437 -0.28468,-3.277462 -0.25841,-2.605372 2.7571,-2.769454 4.29953,-2.078784 2.76795,-1.8366745 5.00156,2.751491 2.30711,4.162499 -0.84225,1.077712 1.76224,1.161835 2.27796,1.427933 0.95392,-1.250189 2.09676,-2.304258 1.47487,-4.035254 0.21623,-1.811346 2.72505,-1.339763 1.84679,-3.283536 0.0313,-1.3655984 -0.53732,-3.4764439 1.50698,-3.938097 -1.23665,-1.7909012 -2.34439,-5.44537903 1.14333,-5.462422 2.51179,0.08009217 4.9808,2.3605688 2.89658,4.728063 1.91168,1.1481464 1.65597,-2.2600629 3.74041,-1.627265 1.93098,0.2401557 1.78644,2.4442304 3.63026,2.738466 1.34194,1.4742802 -0.10303,4.373096 1.10294,5.490337 1.94135,-0.521237 1.84378,3.061814 3.19421,1.341931 2.63537,-1.01759 3.85207,2.276634 2.72377,4.156187 1.88537,2.229296 -2.09225,4.08168 -2.55931,3.618984 1.60433,0.669179 1.88984,2.365188 1.98027,3.787097 1.12388,-0.697604 1.63691,-3.474778 3.84218,-2.370736 1.41731,0.813993 1.63811,2.610521 2.2887,3.949927 -0.10947,2.595095 -3.04429,2.199219 -4.67743,3.020783 -1.32726,-0.851534 -1.45241,0.572935 -1.91667,1.280717 1.44143,0.714864 1.85478,3.115689 -0.24239,3.042576 -0.48047,1.732295 -1.19338,0.838203 -2.4245,0.66135 -1.20331,0.627396 -3.01472,0.02673 -3.59528,1.646253 -1.70779,-0.420017 -2.94304,1.416268 -2.73573,2.823403 -1.92992,-0.657719 -3.46687,1.499626 -2.82925,3.177825 -0.22447,0.972147 -1.01574,2.064462 -1.21826,2.779007 -3.45614,-0.161598 -2.60257,5.545311 0.62297,4.470807 0.72854,-0.318224 -0.62119,1.416033 -0.145,1.8711 -1.0666,0.804843 -0.10857,2.349349 -0.11527,2.998772 -0.88266,0.693111 -1.68289,1.382051 -0.21437,1.949235 0.10207,0.958094 2.1128,2.426071 0.14626,2.672873 -0.55422,0.821424 -1.61718,1.389974 -2.43743,1.604581 0.15884,-0.41056 -1.63091,-0.71839 -0.29603,-1.455401 1.07411,-1.847324 -1.00055,-3.589745 -2.64483,-3.471654 -2.10284,-2.711652 -5.8837,1.549099 -3.05716,3.36224 -2.42535,0.634872 -1.4381,3.631273 -1.1298,5.100608 -0.91081,0.351091 -0.17965,2.401401 -1.39662,1.243596 -1.05805,0.770908 -2.15139,-0.356466 -3.0421,0.298385" clip-path="url(#pd9700eb583)" style="fill:#ff7f0e;stroke:#000000;stroke-width:0.7;stroke-linejoin:miter" id="path17"/>
      </g>
      <g id="patch_5">
        <path d="m 241.41654,88.984077 c -0.0854,0.817513 2.69408,1.39968 1.89139,3.192545 -0.51129,2.692775 -3.91863,0.896081 -4.25844,3.561312 0.36267,1.904843 -1.09294,3.054599 -2.66249,3.757504 -2.05163,1.082932 -3.06242,-1.378093 -4.79715,-1.76153 -1.69636,-1.453393 0.81412,-3.254998 -1.16461,-4.222105 -0.013,-1.700812 -2.46126,-2.621744 -1.36867,-4.509505 -2.49826,0.572882 -3.67945,-1.932587 -3.73164,-3.973632 -1.58413,-0.537017 -3.52994,-0.418037 -4.54353,-1.90814 -3.74509,-0.326146 -1.60226,-6.327619 1.50076,-4.203046 0.75541,0.565362 4.1696,-1.107528 1.68135,-0.706058 -1.8341,-0.647558 -3.39254,-3.080915 -2.26088,-4.742679 -1.53455,-0.329309 -2.40159,-2.103487 -4.02483,-1.881997 -1.23696,0.863807 -2.38088,0.394161 -2.76112,2.114847 -1.89166,0.342487 -1.82978,3.261753 -4.19957,2.73623 -2.47282,-0.416399 -1.13929,-3.194744 -2.81924,-4.136055 -1.3548,-2.237145 2.0275,-4.590087 3.67751,-2.712388 0.78957,-2.392998 3.46511,-0.994493 4.97615,-2.450633 2.52129,0.378737 -1.29683,-1.414603 -0.10014,-2.821493 1.39015,-1.594129 -1.41008,-4.79103 1.45822,-5.97659 -0.66896,-0.703178 -1.36335,-3.747502 0.88419,-4.185416 1.74924,-0.262833 2.89102,1.0656 4.51912,1.368599 2.18241,1.223002 -0.95937,3.830644 1.10589,4.317275 1.38686,-0.639822 2.33878,-2.180803 3.97841,-2.169346 0.82886,-1.251307 1.27814,-2.812882 2.81019,-3.30462 0.72285,-0.645455 0.58186,-3.287373 -0.33707,-2.318136 0.0434,3.764226 -6.13664,2.212581 -4.32455,-1.084668 0.0641,-0.95878 1.2955,-2.894055 -0.49169,-2.123984 -2.96393,-0.158569 -2.47444,-4.975193 0.42175,-4.592667 0.0351,-1.549616 1.66047,-2.524363 0.9817,-4.200268 -0.009,-1.788948 2.47441,-1.631887 2.95363,-2.089615 -0.2252,-2.624939 2.77988,-2.178562 3.91268,-3.659532 1.36845,-0.0013 2.81563,-0.931245 4.06727,-0.04385 1.00086,-3.089436 5.44825,-1.108266 4.49014,1.702147 1.00075,1.467269 -1.78501,3.018593 -1.54812,3.051899 1.33429,-0.716964 2.44942,-0.310123 3.43173,-1.604914 1.45277,-0.124777 2.7043,0.11128 4.16098,0.08279 3.03926,1.336582 0.52153,5.514072 -1.98033,4.792555 -1.62949,0.68206 -0.02,1.676778 0.21148,2.295011 0.77177,-1.3121 2.1482,-1.316364 2.34559,-2.966582 1.07117,-1.729841 3.04065,-0.150816 4.00553,-0.174487 0.94846,-1.514447 2.033,-3.19111 3.92373,-3.322853 2.14667,-1.576337 4.09059,1.04326 5.22482,2.512086 0.92317,2.542257 -2.83954,3.780074 -3.9884,2.263204 0.21333,1.17713 1.10996,2.954342 -0.0206,3.896706 2.05939,0.218717 1.44052,3.230426 1.41602,3.620937 1.61713,0.0094 2.18324,1.482747 3.81766,0.807261 1.44626,-0.157165 3.08047,-0.08388 4.03593,1.261647 2.46545,0.951114 0.2424,4.069851 2.6988,4.981544 0.85766,1.916046 2.98038,-1.359344 4.382,0.467546 1.47961,0.498629 2.43699,1.868611 3.5366,2.89242 0.18348,1.496252 -0.48931,3.009554 1.66135,3.067969 2.19781,0.769013 -0.0207,4.135284 2.32694,3.936648 1.48979,-1.439279 -2.74349,-3.911819 0.44977,-5.434758 2.1614,-2.033876 4.57674,0.838051 4.02543,3.067443 1.78911,1.004268 -0.46765,3.421623 1.74643,3.284285 1.21546,1.437944 1.73864,1.266673 0.75375,-0.431829 -0.26316,-1.939468 -0.0697,-5.115315 2.82351,-4.401918 -1.76254,-2.154024 1.94066,-5.169717 3.84653,-2.9161 1.86367,-1.403653 4.1849,0.998965 3.52781,2.72559 1.16311,-0.201076 2.22182,1.918357 1.94217,-0.263294 0.4762,-2.563423 5.01721,-0.627745 3.91751,-3.610706 0.13672,-3.084845 5.31106,-3.935342 5.64895,-0.456083 2.25857,0.939353 2.70412,4.299717 0.87874,5.74567 -0.0952,1.480907 -0.86113,2.318522 1.04348,2.539333 1.92844,1.184614 0.7463,3.817768 -0.81228,4.381744 0.20421,2.09287 -3.29607,1.937283 -3.25524,2.962262 2.10005,0.923976 2.33572,4.099939 -0.1101,4.719629 -0.65025,0.133022 -1.34066,-1.07281 -1.77359,-1.177709 1.34988,-2.063594 -1.09436,-3.338301 -1.94075,-4.798764 -1.50162,-0.311279 -3.58343,-0.714471 -4.85985,0.472267 -0.55162,0.58079 -0.38621,2.163666 -1.17258,0.43599 -1.38071,-0.536145 -2.39372,1.607562 -3.89237,0.874619 -0.99399,0.268591 -3.33823,0.584385 -2.85783,1.649383 1.63861,-0.473953 2.32894,2.442747 2.8207,0.131765 1.32843,-1.581264 4.27541,-0.738431 4.46555,1.281323 2.04771,0.925942 -0.59265,1.931328 -1.0398,2.811224 -0.95755,-0.28635 -1.37123,2.378967 -1.75361,0.805666 -1.34778,-2.188098 -4.10932,-0.397972 -4.36327,1.213087 -1.15874,-2.693976 -5.19465,-0.722729 -4.30554,1.731443 -1.19923,0.675897 -0.83603,0.281665 -0.59943,-0.303144 -1.07206,0.557672 -2.8388,2.132689 -4.15409,0.481386 -0.36556,1.103142 -2.28359,1.528023 -2.38849,-0.03007 -0.56571,-1.049125 -2.65239,0.03703 -2.01139,-1.548425 -1.23096,-0.07503 -2.44374,-1.828474 -3.18214,-0.09282 1.10625,0.520825 -1.35999,0.131887 -0.99736,-0.536974 -1.71235,-1.251613 -3.68326,0.615507 -3.68627,2.241932 -0.43374,-1.260174 1.59232,-3.57354 -0.5665,-2.072322 -1.02115,0.295612 -1.47699,1.919444 -2.73175,2.101399 -0.85136,0.965018 -2.60429,0.592698 -3.39833,-0.352968 -1.70815,-0.597466 -3.40848,1.27157 -2.89113,2.910632 -0.60015,1.145164 -2.34042,0.194673 -3.05178,1.544481 -2.38658,1.224724 -3.43731,-2.27564 -3.29266,-3.107538 -1.19917,1.190669 -2.61093,4.0568 -4.77656,2.258998 -0.97172,-0.321605 -2.39733,1.233522 -3.60775,0.181185 -1.68793,0.970768 -3.1993,-1.237165 -3.34264,-2.115587 -1.50164,0.487823 -2.31381,0.314621 -2.13881,2.264253" clip-path="url(#pd9700eb583)" style="fill:#2ca02c;stroke:#000000;stroke-width:0.7;stroke-linejoin:miter" id="path20"/>
      </g>
      <g id="patch_6">
        <path d="m 321.12241,65.318395 c 2.45328,-1.769031 4.51481,1.807434 3.6364,3.291852 1.50255,-0.89798 3.39958,0.459403 3.4504,2.034147 1.30672,1.096395 1.85089,0.437176 3.35978,0.187774 1.36674,0.482709 1.79824,1.30686 3.23126,0.477988 2.91352,-0.105348 2.96714,4.528132 0.14002,4.645829 -1.16114,1.617743 -3.03118,-0.203474 -3.89233,-0.01725 -1.36737,0.253266 -1.85465,1.693797 -2.88121,2.428031 -0.0344,0.767546 -2.53924,2.219198 -1.25913,0.600209 0.89573,-2.221324 -0.77041,-5.152104 -3.36,-3.926387 0.29947,0.811053 -0.59585,1.880519 -0.57669,2.501732 -1.75471,-0.64352 1.33301,-2.251884 0.0151,-3.491578 -0.90488,-2.212554 -4.33804,-1.322851 -4.36545,0.890232 -2.16952,0.577296 -2.01104,3.714414 -0.0823,4.433513 1.9914,0.798132 -0.25696,2.035082 -0.20449,3.319158 -0.47128,1.564985 -1.21654,-0.137974 -1.56901,-0.552651 0.54944,-2.137809 -2.43956,-3.671743 -3.88173,-2.057807 -0.60002,-0.737429 -0.0226,-1.997329 -1.35183,-2.396524 0.42657,-1.938783 3.41739,-1.254632 3.73556,-0.861131 -0.37339,-1.581544 -1.85545,-3.794951 0.5305,-4.769303 -0.83456,-1.084159 -1.33345,-2.752143 -1.72569,-4.181447 0.9599,-1.812678 1.70154,-3.860644 3.31485,-5.158839 1.8454,-0.73615 3.41207,0.974467 3.75019,2.602301" clip-path="url(#pd9700eb583)" style="fill:#2ca02c;stroke:#000000;stroke-width:0.7;stroke-linejoin:miter" id="path23"/>
      </g>
      <g id="patch_7">
        <path d="m 100.7347,134.36442 c 1.99402,2.45568 -1.870653,5.04981 -3.769066,3.02826 -0.138046,1.52056 -1.575008,2.53103 0.384174,3.49462 1.596354,1.598 -0.54703,3.56488 -1.490356,3.99484 0.882922,1.5789 -0.380887,3.13286 -0.486885,4.71408 -1.107601,1.94032 -3.09263,0.4433 -4.31013,0.15245 -1.482636,0.17248 -2.9318,-0.22935 -4.035778,-0.98726 -1.132902,1.18369 -0.95073,3.05049 -2.516378,3.87791 -1.848609,0.76383 -2.772173,-1.33005 -4.49592,-1.31147 -1.374402,-0.92822 -4.006624,-0.0277 -4.624935,-2.02762 -1.137634,-0.15743 -1.149508,2.12953 -2.195199,0.56994 -0.912328,-0.42208 -1.923372,0.4419 -2.469586,-0.50383 -1.51107,0.51648 -1.991508,1.26079 -2.055752,2.83173 -0.87509,1.80605 -3.462864,1.36801 -4.280231,-0.13778 0.0738,3.05312 -4.155803,2.30639 -4.608162,0.93211 -0.981635,1.15622 -2.507112,1.79371 -3.207658,3.15022 1.104973,1.39207 2.363345,3.55973 4.583589,2.96699 1.459901,0.24812 1.247792,-3.30205 2.233728,-1.08761 0.535591,0.89934 3.036169,-0.14356 1.405368,1.34681 -0.689934,0.88448 -2.063585,0.024 -2.890085,0.75985 -1.407209,-0.57042 -3.186342,2.41289 -4.055707,0.22452 -0.972709,-0.99746 -1.20746,2.58871 -3.103669,1.74893 -1.700883,0.19029 -3.518381,-0.22511 -4.200488,-1.98017 -2.091793,-0.93101 0.31815,-3.3758 -1.630042,-3.84011 -2.138597,-1.00742 -3.203115,3.648 -0.693687,4.11881 1.602536,0.87973 -1.317546,1.22016 -1.840486,1.48097 -1.451487,0.53271 -0.662069,2.43515 -2.331896,2.61141 -0.978489,0.80955 -0.729904,2.46311 -0.07012,3.21122 -0.64998,-0.35404 -0.935636,-1.47587 -1.199549,-2.15639 0.567737,-1.09004 -2.148517,-1.89716 -0.299078,-2.32935 1.935623,-1.49455 -0.222819,-3.07691 -0.207846,-4.6153 1.382338,2.01879 4.93212,-0.0705 3.779097,-2.02098 -1.456738,-0.57725 -1.859281,-1.26106 -3.381051,-0.45465 -2.155549,0.15202 -2.066208,-2.21761 -2.56874,-3.32653 -0.821238,-2.11968 -1.28536,1.27636 -2.060047,2.00397 -0.02124,1.52364 4.020658,3.26403 1.363234,5.38366 -1.240292,0.7912 -1.772638,3.49261 -3.991779,2.44052 -1.524866,-0.59806 -1.037849,-2.94305 -3.056862,-1.78327 -3.105308,-0.3209 -1.796435,-4.3384 -1.364612,-5.63774 -2.395273,0.56808 -4.742857,-2.00689 -3.61834,-4.28681 -2.126537,0.22276 -3.181791,-2.19672 -5.36125,-2.1996 -2.03235,-1.34401 -2.234626,-6.13668 1.175234,-5.63555 1.296175,1.2685 2.939272,-0.68396 1.950589,-1.86569 0.43003,-1.5286 0.449004,-3.44477 1.191277,-4.63006 -1.726729,0.17217 -2.907754,-1.0026 -3.643595,-2.29873 -1.004542,-1.05541 -0.97913,-2.0569 -2.614727,-2.16561 -1.757707,-0.95573 -0.03877,-3.14784 -2.122202,-3.48261 -1.783481,-1.61364 0.246684,-3.86199 1.610674,-4.19502 -0.843316,-1.73093 -2.701866,0.2752 -2.485966,1.76561 -1.55221,3.0065 -5.952397,-0.22679 -3.814411,-2.65416 -1.322922,-2.19749 1.552116,-3.40823 2.750112,-3.81107 -1.133416,-1.28005 -0.149251,-2.73408 -1.914944,-3.4492 -0.844664,-1.58778 -3.26807,1.61529 -4.45492,-0.68473 -1.3917245,-0.74003 -4.7467311,-0.92361 -3.904028,-3.63358 1.0528722,-1.21033 0.8998951,-1.52457 0.213398,-2.9059 C 6.8149114,107.40445 5.3470739,107.295 4.85761,105.81451 4.1106947,104.61942 3.2445894,102.91162 4.458863,101.58854 4.8350096,99.900792 5.6530954,99.173336 3.830854,98.136851 1.6512462,99.047272 0.05720487,96.456299 0.853074,94.613872 -0.45287539,93.156899 -0.10400136,90.393726 1.212363,89.065017 2.5277875,88.466306 3.2528587,86.08985 5.217172,87.216256 4.6182295,85.414138 3.0705651,82.353675 5.879734,81.473164 c 0.9115059,-2.452724 4.485591,0.95013 4.184565,-1.844534 0.253018,-1.82401 2.853539,-1.619598 3.479482,-1.50363 -0.57638,-2.429916 0.455166,-4.681699 -0.01313,-7.073249 0.115782,-1.525942 2.378352,-1.5588 2.833673,-1.739056 -0.517834,-1.344613 -0.508,-3.693731 -1.682694,-4.329001 -2.361844,-0.137878 -4.493173,-2.588276 -4.016063,-4.77012 C 9.406565,60.293622 6.9581604,60.4908 6.757906,58.341149 5.5210764,56.03193 9.0236253,55.201097 7.673523,52.918471 7.7319564,51.743556 4.7809578,51.046511 5.968741,49.068369 6.3697342,47.283586 9.9108959,48.066937 9.133065,46.041773 8.4190654,43.657271 7.5054305,45.963776 6.046993,46.168659 3.3106016,46.44502 2.8100166,42.709612 4.835832,41.51554 3.4452747,39.272006 6.8248071,37.426847 8.060156,38.354727 c -1.173502,-2.844498 2.905645,-4.013564 4.247591,-2.293397 1.932321,-0.955933 4.21986,0.906594 5.996765,0.214916 0.763981,-2.980743 4.950038,-1.135695 4.599411,0.707807 0.509021,-1.46752 2.822355,-0.719724 3.151681,-0.903961 -0.189072,-2.738165 2.984136,-2.216076 4.28594,-3.695934 1.916765,-0.588366 2.546676,1.694033 4.382422,1.2346 0.867325,1.418829 2.052132,-1.040163 1.049392,-1.654349 -1.655128,-2.846164 3.438404,-4.917938 4.238056,-1.724168 1.532087,-0.347994 2.740115,0.761448 3.946401,-0.553218 1.112148,-1.612393 4.014899,-1.592639 5.406145,-0.420951 2.094407,0.691538 0.335105,-3.633606 2.968654,-3.561668 3.0157,-0.459764 3.017365,3.387303 2.915477,5.200159 1.282471,1.001062 0.668121,2.92402 2.741997,2.447677 0.931621,0.09633 2.29465,2.763108 1.467737,0.643318 -0.717244,-1.689715 0.868309,-2.741628 -0.743869,-4.015675 -0.571277,-2.255924 1.978673,-3.12168 3.244279,-4.328756 1.905809,-0.05271 4.736117,0.282791 4.998492,2.388876 2.211106,-0.88791 3.02462,1.712538 4.499903,2.631278 0.866411,1.717086 4.374637,0.475342 4.219246,3.320037 -0.09472,1.237904 -1.200121,2.101329 0.407799,0.967917 2.68869,-0.992653 3.092234,2.316999 4.492655,3.690936 0.538627,0.841597 2.961633,1.102059 2.49314,2.991688 0.576334,1.665499 0.245117,3.769383 2.151026,4.351929 0.537513,1.291932 2.464391,0.245276 3.227802,1.576077 1.983794,0.01008 1.944585,2.350233 3.886665,2.24859 1.019443,1.154224 2.416699,2.423191 2.426651,3.850605 1.277598,0.544083 1.503634,1.93967 1.909074,-0.07496 1.817649,-2.410416 4.649742,0.243314 5.778872,1.885558 0.7785,2.057811 -1.64964,2.902635 -2.785252,3.298935 -1.412528,0.785488 -0.68132,2.086522 -0.277276,3.038417 1.855818,-0.01351 1.927138,2.047893 2.184848,3.130876 2.1888,0.629971 2.08608,3.29641 0.6955,4.536089 -0.20559,1.96191 -3.403605,1.5188 -2.421511,3.498325 0.621631,1.916702 2.923131,0.303404 4.207831,1.200137 1.62793,-3.089407 5.85909,0.391596 3.8698,2.600297 3.74511,0.326144 1.60226,6.327634 -1.50078,4.203046 -0.6519,-0.456481 1.23659,1.511175 0.56897,2.30077 1.65557,0.701594 0.20769,3.815036 2.10268,2.813481 0.85906,-2.269971 4.09949,-1.834815 5.74204,-0.905939 0.64361,1.55538 1.38871,-2.235901 3.19869,-1.202977 0.14084,-2.997977 5.32448,-2.57591 4.61891,0.620082 -0.9945,1.389926 1.85415,3.240447 -0.31453,4.702839 -1.1239,1.667187 -4.02426,-1.437174 -3.03219,1.281418 0.62474,1.575276 3.08122,3.202985 0.9499,4.962748 -1.27057,0.597624 -1.80625,2.295317 -3.40602,2.362808 0.29878,0.494677 2.85238,1.904244 2.18921,3.208282 2.51043,-2.20574 4.68309,2.21439 3.36603,3.23726 1.72284,0.29651 1.73364,-1.3189 2.81824,-2.19011 -1.46718,-1.7434 0.68645,-3.280727 1.5922,-4.080234 0.58597,-1.366013 0.50551,-2.804811 1.47923,-4.030384 1.35368,-1.161644 2.95548,-2.778086 4.93522,-2.056208 1.32027,-0.205631 2.08111,-3.323762 4.19002,-2.009878 2.46545,-0.295049 -0.1829,-1.515037 0.53262,-3.052097 0.65496,-2.527837 4.55989,-1.818616 4.57127,0.639389 1.28808,-0.143196 2.92094,2.780746 3.11435,0.355747 0.71218,-2.188189 3.35794,-1.436802 5.01882,-1.596921 1.27241,0.31031 1.54661,3.194285 1.98247,0.950052 1.65064,-3.292547 5.71331,-0.100424 4.24778,2.696685 1.48643,1.298538 0.12696,3.36739 -0.58053,4.143118 0.18971,1.488392 0.31682,2.577468 1.96325,2.978774 0.9887,2.169409 4.32991,4.513867 2.20149,7.131487 0.40344,1.12823 1.1663,-2.37094 2.70088,-1.54267 1.48715,-0.97863 -2.14457,-2.24339 -0.81992,-3.932335 -2.75652,-1.001836 -0.9787,-5.414629 1.68894,-4.298432 1.13546,-0.296938 1.23433,-2.393864 2.89573,-2.16108 1.50705,-1.270083 3.05532,0.732544 3.86292,-1.330234 1.27334,-1.419472 2.09329,0.501403 3.36404,0.501406 0.92288,0.452077 1.14823,0.976302 1.08884,1.994865 0.47629,0.952525 2.26642,2.241063 1.28589,3.348395 2.13262,-0.205831 -1.3451,1.076519 -0.54715,2.144021 0.52122,1.470234 -2.69778,2.121514 -1.18014,4.082074 0.63216,1.34793 2.57727,1.56002 3.5799,0.6236 0.35967,1.26386 0.28417,2.34557 0.005,3.57905 0.97784,1.85446 -2.35279,2.08582 -2.08124,3.39483 1.14937,1.10202 1.7145,2.48834 2.75601,3.79127 0.77129,2.58285 -2.21449,3.97398 -1.96207,6.49679 0.16997,0.3023 1.4961,0.15776 1.65678,1.28084 1.56945,0.86494 1.27854,2.95914 -0.49865,3.44877 -0.61512,1.15915 1.28647,2.84411 0.19127,4.32693 0.45166,1.13966 -0.26274,2.51864 1.37776,1.34199 2.94885,-0.636 3.57446,3.79686 1.19857,4.58971 0.51294,1.18134 -0.55847,2.38365 -1.29997,2.88785 0.84238,1.53799 2.87018,3.00326 1.98613,5.01045 -0.12831,1.27086 1.06501,-0.56899 1.34588,0.29599 1.347,0.23335 2.4572,1.85836 3.644,0.0827 0.38655,-1.81028 1.5695,-0.008 2.66299,-0.4917 -0.0338,1.0819 -1.98524,2.10944 -0.66778,3.03508 1.60617,-0.86076 2.38998,1.35464 3.26584,1.56818 2.51165,-0.55113 3.30288,2.67259 2.19671,4.11795 1.23922,2.66411 -2.53623,3.75101 -2.34138,6.14975 -1.50739,1.02024 1.02741,3.47501 -1.40062,4.46399 -0.70686,0.58247 -2.88466,-0.38224 -2.3336,0.98329 1.32333,0.1743 1.33188,2.48661 2.31432,0.68651 1.42909,-0.31401 2.38022,-0.59322 3.67264,-1.29028 2.15671,-0.31364 2.73462,2.19072 2.46482,3.57829 1.03772,1.475 -0.21257,3.81292 0.98163,5.05352 1.9602,-0.81988 5.11843,-1.32142 5.30991,1.59418 2.45203,-0.12337 2.71183,3.1723 1.55739,4.25004 2.12112,1.69423 -0.14436,4.79909 -2.42198,4.06745 0.50547,0.85212 0.78672,3.39335 -0.96756,3.91647 0.48182,1.76357 -1.63729,3.6251 1.07007,4.28876 1.30814,1.18794 0.51275,3.22577 -0.81556,3.88424 0.6833,1.81362 0.44856,4.69789 3.02546,4.36199 3.09938,-0.37316 3.12069,3.7076 2.15233,5.56652 -1.4215,0.83348 -3.09875,1.6774 -4.80314,1.37817 -1.05902,-1.63306 -2.71809,1.02279 -3.95943,-0.70892 -1.43416,1.38697 -3.04938,-0.28705 -4.36283,1.17013 -1.37043,-0.11133 -2.45542,0.22804 -2.2887,1.84194 -1.13907,1.75427 -3.72942,1.14606 -5.38714,0.85876 -0.97208,-1.19821 -1.66254,-2.86694 -1.61595,-4.42701 0.10096,-1.18293 3.87845,-2.64068 1.26465,-2.39343 -1.22275,-0.78056 -2.03144,2.02033 -2.86033,0.0792 -1.13496,-0.62813 -2.49913,0.22884 -3.33387,-1.07451 -0.57328,-0.58759 0.36242,-2.02099 -0.75395,-2.57573 0.45285,-0.0982 1.39067,2.03825 2.56374,1.56333 2.02233,1.83404 5.20528,-1.42005 3.07038,-3.36769 0.10295,-1.94813 -2.01381,-2.29672 -3.31102,-2.24335 -0.37344,-0.77589 -2.08517,-0.28042 -2.15868,-0.50319 1.05096,-1.71585 -0.50342,-3.63936 -1.77531,-4.65137 -2.2098,0.37676 -0.0645,-1.4684 -0.91832,-2.44411 1.63411,0.59171 2.60676,-1.6132 4.21132,-0.37955 2.83975,0.11599 3.03196,-4.53401 0.10707,-4.61473 -0.10484,-2.21852 -3.23413,-1.04641 -3.38275,0.5606 -1.63906,0.0672 -1.70669,-2.09805 -3.22511,-2.25813 -1.13185,-1.73899 -3.60395,-1.11661 -5.06154,-2.40116 -1.13182,0.18056 -0.4917,-1.71407 -1.55885,-1.99993 -0.10643,-0.76568 -1.45112,-1.24798 -0.44265,-1.99343 1.8885,1.66166 4.98592,-1.10806 3.25065,-3.17025 0.73022,-0.70542 1.78066,-1.75366 2.71,-1.96532 0.77294,-1.36235 1.144,-1.49961 -0.22793,-2.54752 -0.59146,-1.7009 0.88109,-3.4028 -0.36555,-5.05677 0.93446,-1.35552 0.42907,-3.60936 -1.4167,-3.90727 0.75601,-2.47763 -0.38296,0.52666 -1.73143,0.42955 -0.86307,0.44243 -2.31482,-0.11626 -2.93443,1.02191 -1.65507,-0.6141 -2.81821,1.02905 -3.10588,2.31182 -1.34914,0.90881 -0.82887,-1.67236 -1.94315,-1.94543 -0.62851,-1.5125 -1.00971,-3.97808 -3.34753,-3.36178 -1.87,-1.25213 -2.57736,1.18964 -4.19447,1.17694 -0.54754,0.0216 -0.32292,-2.5416 -1.79872,-2.19158 -1.67126,-0.58495 -3.47472,1.2582 -2.83304,2.91932 -1.20032,1.29729 -2.63168,2.23162 -4.07336,3.21033 -0.12036,2.67247 -3.39841,-0.30327 -4.1574,2.15217 -0.0271,1.24914 -0.35126,2.44133 -1.84674,1.51381 -0.15651,-1.61746 -3.83898,-0.87312 -2.24504,-2.82438 0.24499,-1.96254 -2.1141,-3.8002 -3.72724,-3.66012 1.30473,-1.07543 2.85712,-0.74791 4.29742,-0.31414 2.85695,-0.13804 2.58125,-4.72388 -0.24717,-4.56174 -0.74067,-1.98879 -3.22262,-0.83158 -4.36817,-2.04453 -0.004,-1.84848 -0.86489,-4.34291 -3.25591,-3.80783 -1.18637,0.24889 0.4795,-1.81457 -0.5353,-2.3736 -1.57113,-0.5515 -0.80081,-2.58903 -2.40644,-3.11743 1.56323,-1.51961 0.0225,-3.88434 -1.73321,-3.99899 -1.24767,-2.28429 -4.29551,-0.61234 -5.45804,0.79206 -0.49847,0.61164 0.15541,1.60511 -0.32376,2.03873 -0.14083,-0.87963 -2.86424,-1.46451 -2.13724,-3.39962 -0.17727,-1.09217 0.99356,-2.88199 -0.52528,-1.26937 -1.30566,1.10269 0.0116,2.51877 0.6157,3.61319 -0.29196,1.24078 1.01407,1.78907 1.98138,1.28649 -0.37065,1.0944 -1.07781,1.97776 -2.33344,1.48561 -2.70619,0.42312 -2.12938,4.45971 0.27048,4.56065 -0.13579,1.12948 -0.18036,2.80333 -1.87174,2.42738 -1.25736,1.1582 -0.32239,-2.54746 -2.16562,-2.00968 -0.6555,-0.51418 -2.32569,0.89921 -1.54222,-0.74402 -0.57618,-0.82328 -1.21911,1.19322 -2.43643,0.74308 -0.64434,0.98812 -1.22522,0.3343 -2.00687,-0.12678 -1.04584,-0.55129 -2.28833,1.19026 -2.21806,-0.66179 -0.70133,-1.30599 -0.9455,-3.15128 -0.028,-4.1823 -3.21771,-0.54508 -1.86237,-4.49762 -0.36995,-6.02429 0.77481,-0.6169 -2.07291,-0.89794 -1.59891,-2.11874 0.19561,-1.01268 0.0695,-1.77633 -0.51618,-0.63656 -0.0164,0.66507 -1.677437,0.89495 -0.79594,1.35299" clip-path="url(#pd9700eb583)" style="fill:#d62728;stroke:#000000;stroke-width:0.7;stroke-linejoin:miter" id="path26"/>
      </g>
      <g id="patch_8">
        <path d="m 161.9475,216.50561 c -0.65373,-0.86339 -0.64791,-2.50065 -1.79706,-0.95001 -0.90926,0.83607 -1.53786,3.07196 -3.45845,2.47135 0.38804,3.07426 -4.4748,3.46057 -4.70073,0.5115 -0.78228,0.56274 -2.53443,0.72462 -2.86602,0.98708 -1.21436,1.57639 0.97728,2.64457 0.01,4.35725 -1.17656,2.4221 -3.47981,-0.019 -5.09383,1.15533 -2.88347,0.23364 -3.07375,-3.52302 -1.19074,-4.75888 0.60032,-0.61625 -2.19139,-1.3961 -2.39073,-0.98248 -1.27173,1.09545 -1.72434,2.38987 -1.42164,4.02921 -0.45372,1.57782 -2.47332,1.2359 -1.73636,3.05402 0.0385,1.38131 0.51536,3.52504 -1.54798,3.94673 1.26445,1.77734 2.37204,5.43139 -1.12033,5.45004 -2.36726,0.0663 -5.02144,-2.22532 -2.95159,-4.49603 -0.55385,-0.73009 -1.61714,-0.41898 -1.79627,0.73715 -1.61244,1.75263 -3.68706,-0.22417 -4.31986,-1.43487 -3.10594,-0.62203 -0.88126,-4.83637 -2.33481,-6.0891 -1.9758,0.38451 -1.83768,-2.97029 -3.35203,-1.27007 -2.60895,0.74012 -3.53043,-2.41721 -2.52357,-4.22364 -1.94618,-2.29622 2.2376,-4.03983 2.5654,-3.62632 -1.68223,-0.57836 -1.90016,-2.37882 -2.03126,-3.75198 -1.09679,0.59741 -1.29791,3.1568 -3.37384,2.49628 -1.83051,-0.48728 -1.99847,-2.67068 -2.72849,-4.06876 0.10886,-2.58114 3.03168,-2.20298 4.66014,-3.02115 1.20623,0.94279 1.8628,-0.86029 1.67785,-1.39247 -1.28232,-0.7983 -1.56725,-3.03047 0.37256,-3.0035 0.5082,-1.44592 1.01691,-1.11446 2.19567,-0.6387 1.26955,-0.5988 3.16671,0.0116 3.8048,-1.6371 1.71276,0.41857 2.93048,-1.42336 2.73038,-2.82178 2.32976,0.7047 3.21937,-1.77987 2.93283,-3.48602 0.18774,-0.83132 1.15426,-1.57102 1.0169,-2.45467 3.0421,0.32304 3.15861,-4.68191 0.13488,-4.55637 -1.9023,0.85742 0.0391,-0.9448 -0.50519,-1.7773 1.06181,-0.78048 0.0901,-2.31877 0.16044,-2.94762 1.46912,-1.06811 1.04937,-1.36243 -0.0823,-2.54929 -0.13952,-0.98907 -1.56331,-1.849 0.21936,-2.20528 0.41682,-0.91809 1.6033,-0.95214 2.23873,-1.5349 -0.13273,0.53043 1.77792,0.66706 0.34276,1.52311 -1.07973,1.85985 1.00466,3.59613 2.65268,3.45844 2.09418,2.70941 5.89165,-1.55156 3.05247,-3.35973 2.28315,-0.61867 1.67566,-3.47462 1.03432,-5.002 1.00457,-0.24118 0.28462,-2.43967 1.47327,-1.31424 0.66474,-0.74147 3.52137,0.53223 2.6272,-0.69552 -1.35329,0.9531 -3.47259,-0.69549 -3.29039,-1.91573 1.11932,-1.12279 2.51775,-0.6313 3.82189,-1.14075 0.79785,-0.36702 0.70435,-2.13203 1.70782,-0.75481 2.60116,1.22262 4.60337,-3.16237 1.75011,-4.2242 0.79733,-1.62672 -1.05491,-3.32208 -2.3911,-3.18845 1.41169,-1.09094 2.65046,-2.06821 2.59231,-3.94386 1.15708,-2.43661 4.51778,-0.65595 4.48444,1.08431 1.60248,-0.32644 2.68482,-2.13908 4.54303,-1.23265 2.78996,-0.12459 2.41184,3.34795 3.97083,4.75284 0.76344,1.01573 -0.84048,3.51158 1.01563,2.13611 1.34195,0.0146 -0.94354,-2.64438 0.95724,-3.41137 1.46579,-0.54685 2.61905,-0.75432 4.06049,-1.3703 1.50438,-0.0864 3.86166,-1.31527 4.538,1.11382 0.96898,1.62842 -2.25242,2.52486 -0.15771,3.60385 1.13831,1.61425 -0.94299,3.1657 -1.65668,3.62532 0.73405,1.4691 -0.63448,2.90157 -1.81397,3.29184 0.32949,1.04179 2.60809,2.34613 1.19939,4.02213 -0.72089,1.8182 -3.02776,0.27192 -3.62091,0.99258 0.25369,1.1735 1.70998,2.51166 2.06726,3.46357 1.81656,1.05148 4.21806,0.98453 5.66732,2.59083 1.32685,0.74531 2.58237,3.47877 3.63266,0.83967 1.0249,-0.90631 2.65433,-0.69895 2.70733,0.76367 3.70987,0.32127 1.64806,6.25306 -1.45703,4.23468 -0.75773,0.42215 -2.58731,0.87228 -2.86775,1.01384 0.0651,1.53064 -0.77859,2.21504 1.21463,2.34907 1.09955,1.14291 2.31793,3.2943 1.43088,4.53301 1.5372,-0.12158 2.68716,0.68911 4.22031,0.67799 1.47399,1.32739 3.02342,4.82529 0.24021,5.79792 -1.73373,0.36091 -3.95457,-1.16164 -4.65246,-1.98331 1.03657,1.13192 0.0977,3.2596 2.11856,3.33451 2.9595,-0.98206 4.11186,3.8472 1.20776,4.50243 -0.86562,1.3432 -1.43746,1.35794 0.0134,2.47526 0.34694,1.55864 -0.20719,2.52362 1.69588,2.94545 4.46532,-2.97941 6.04964,4.45942 1.52416,4.93482 -1.30175,-0.60137 -2.30528,-0.65224 -3.70367,-0.85861 -1.16254,-1.14621 -3.07291,-1.48784 -3.91866,-2.54879 -1.08277,1.82444 -1.99491,5.64576 -4.87355,3.63936 -0.96396,0.30444 -2.91196,-0.18403 -3.4252,0.23767 0.50361,2.13945 -3.07593,1.68732 -1.93816,3.32457 0.3201,2.91469 -3.79973,3.10763 -4.65778,1.0697 -4.00909,1.01557 -3.33128,-5.36269 -0.22853,-4.56862 -0.12653,-0.0818 -0.24053,-0.1816 -0.34833,-0.28618" clip-path="url(#pd9700eb583)" style="fill:#9467bd;stroke:#000000;stroke-width:0.7;stroke-linejoin:miter" id="path29"/>
      </g>
      <g id="patch_9">
        <path d="m 130.12121,178.04472 c -2.13252,-0.24736 -1.4573,3.12143 -3.64488,3.14678 -0.73949,0.61212 -0.61593,3.41245 0.21935,2.53106 -0.0422,-3.75896 6.13359,-2.21161 4.32453,1.08237 0.044,0.97337 -1.35792,2.8895 0.47855,2.1358 2.95435,0.15457 2.48489,4.96404 -0.41768,4.58376 -0.16066,1.62396 -1.47577,2.66629 -1.03579,4.41042 -0.0403,1.91595 -2.91176,1.06411 -2.88877,2.09819 -0.0928,2.49042 -2.89635,2.04773 -4.1237,3.49755 -1.30893,-0.0919 -2.65491,0.86897 -3.84403,-0.0359 -1.01074,3.07313 -5.42713,1.10101 -4.49473,-1.70025 -0.96058,-1.46227 1.67451,-2.94143 1.56066,-3.06185 -1.32818,0.71792 -2.44752,0.3036 -3.42562,1.59707 -1.44742,0.13325 -2.69868,-0.12491 -4.15038,-0.0907 -3.02585,-1.32094 -0.54376,-5.50481 1.96512,-4.7728 1.65016,-0.89375 0.17881,-1.13707 -0.14716,-2.43788 -0.68552,1.44377 -2.23021,1.39167 -2.40779,3.10746 -1.05936,1.66118 -3.01466,0.25886 -3.99058,0.15763 -0.96824,1.51102 -2.03904,3.21858 -3.94808,3.34891 -2.146044,1.57392 -4.098053,-1.03699 -5.234815,-2.50631 -0.927153,-2.56253 2.868226,-3.75392 3.99726,-2.26501 -0.145659,-1.18948 -1.105387,-2.96207 0.0363,-3.91137 -2.063649,-0.21705 -1.440981,-3.23487 -1.415008,-3.61999 -1.606821,0.0596 -2.148393,-1.55658 -3.765936,-0.86464 -1.329254,-0.11267 -3.015882,0.37156 -3.833179,-1.17899 -2.791794,-0.64869 -0.300644,-4.08932 -2.833704,-4.80969 -0.778591,-2.33164 -3.016249,1.16133 -4.502521,-0.66589 -1.490209,-0.49098 -2.420651,-1.88515 -3.537691,-2.8961 -0.1449,-1.49362 0.398628,-2.96616 -1.703744,-3.02324 -2.226751,-0.77065 0.05183,-3.97459 -2.266993,-3.99836 -1.494324,1.43703 2.7643,3.91883 -0.457861,5.43692 -2.127963,2.02709 -4.635881,-0.82401 -4.026653,-3.06488 -1.792182,-1.00574 0.471337,-3.42242 -1.744527,-3.28549 -1.015572,-1.17838 -1.90168,-1.46504 -0.804405,0.20674 0.629514,2.21768 -0.456107,5.34729 -2.770163,4.76616 1.722892,2.52906 -2.203912,4.79121 -3.870596,2.78199 -1.856012,1.39786 -4.216215,-0.98604 -3.515128,-2.74052 -1.170188,0.17655 -2.255395,-1.9235 -1.972714,0.29184 -0.383022,2.51992 -4.589202,0.64937 -3.987087,3.18605 0.525819,3.05933 -5.021946,4.70277 -5.459356,1.12008 -2.17538,-1.04342 -3.03705,-4.36808 -1.035999,-5.95076 0.09489,-1.47534 0.886093,-2.33745 -1.024525,-2.56024 -1.89253,-1.15502 -0.797751,-3.79232 0.782587,-4.34516 -0.194898,-2.1349 3.349744,-1.87578 3.278333,-2.98054 -2.124845,-0.83779 -2.414102,-4.34846 0.231723,-4.71273 1.111718,0.75182 1.684958,0.85473 0.859414,2.23489 0.225353,1.59715 1.688576,2.41987 2.52195,3.63856 1.233571,0.34479 2.530417,0.25561 3.78668,0.0726 1.532456,0.24902 0.886942,-3.25102 2.165741,-1.40585 0.95226,1.89185 2.804383,-1.26774 4.260202,-0.39682 1.100413,-0.56922 2.794285,-0.0676 2.980819,-1.60371 -1.623739,0.73599 -2.521987,-2.44799 -2.983276,-0.1339 -1.904048,2.00954 -4.506187,-0.0179 -5.333727,-1.9754 -1.245916,-0.79385 1.477773,-1.4597 1.391116,-2.2842 1.115713,0.30053 1.487833,-2.66201 1.994941,-0.64494 1.263789,1.70868 4.117445,0.53145 4.104625,-1.41821 1.225731,2.54975 5.315946,0.9451 4.439689,-1.70558 0.852208,0.0123 2.063216,-2.03812 1.20087,0.0149 -0.513874,1.68223 1.834405,-1.8129 3.13251,-0.50851 0.882823,1.39804 2.442852,-2.2772 2.985347,0.39342 0.709881,1.15772 2.966713,-0.19308 2.250501,1.70491 1.055227,0.31134 3.118924,1.69128 3.017235,-0.0441 -0.674432,-0.89141 1.534812,0.92357 1.730567,0.84423 1.575967,0.39541 2.758469,-1.22708 2.855383,-2.54708 0.824774,-0.57216 0.20934,2.25651 -0.217187,2.4647 0.0063,0.41185 2.184867,-0.38675 2.209534,-1.39159 0.880535,-0.4428 1.604825,-1.1973 2.359474,-1.5861 1.561214,-0.62404 2.570637,1.70794 4.145362,0.6331 1.968394,-0.64232 0.05749,-4.02032 2.889373,-3.13694 1.41335,-1.68917 4.96126,-1.50654 4.75447,1.33881 -0.26115,2.2255 1.51741,-1.31357 2.33096,-1.74274 1.10376,-1.105 2.39746,0.73812 3.20494,0.35276 1.45661,-1.21033 3.32188,-0.26222 4.95373,-0.22478 1.47378,0.5058 0.6365,2.97412 2.39607,1.67542 1.21843,0.19277 1.71726,-2.73432 0.31112,-2.54462 -2.68268,-1.36854 -0.36161,-5.22352 1.99259,-4.29348 1.8825,-1.34607 0.34567,-4.67688 3.1995,-5.07839 1.42195,-1.60853 3.0745,0.014 4.17073,0.72019 2.00098,0.23362 2.10292,2.89112 1.38488,3.91546 1.35486,0.88297 1.02974,2.5742 2.45027,3.42108 0.64693,0.80585 -0.87981,2.52193 0.78286,1.95656 2.32917,-0.23951 2.63657,2.34932 2.85009,4.00538 1.58257,0.55424 3.51253,0.43016 4.54389,1.89468 3.74545,0.32591 1.5998,6.32126 -1.50076,4.19737 -0.77962,-0.54746 -4.16114,1.06592 -1.70696,0.73387 1.80707,0.64653 3.38818,2.99923 2.31982,4.67712 1.55601,0.27434 2.35579,2.1045 3.94653,1.95964 1.24513,-0.85588 2.37517,-0.39791 2.76113,-2.11577 1.89308,-0.34351 1.82907,-3.26616 4.20329,-2.74115 2.47344,0.41567 1.13868,3.19272 2.81619,4.13389 1.36146,2.25546 -2.05352,4.56429 -3.6813,2.71623 -0.78735,2.38693 -3.45455,0.99977 -4.96963,2.44079 -2.52164,-0.38158 1.3043,1.40433 0.10585,2.81335 -1.05911,1.68148 0.98412,5.27705 -1.57043,6.19807 2.75033,2.43804 -1.72636,5.67442 -3.63624,3.12674 -2.47542,0.35604 -3.05036,-2.98994 -1.86864,-4.17365 -0.62839,-1.52649 -1.82535,0.13592 -2.66167,0.48365 -0.29178,0.4384 -0.73852,0.7705 -1.24282,0.92243" clip-path="url(#pd9700eb583)" style="fill:#8c564b;stroke:#000000;stroke-width:0.7;stroke-linejoin:miter" id="path32"/>
      </g>
      <g id="patch_10">
        <path d="m 38.044448,154.73599 c 0.738787,-0.71926 0.807301,-2.35795 1.582673,-2.8063 0.842022,0.94531 0.903589,1.74612 1.030484,3.00292 0.648263,1.67164 2.814265,1.13617 3.721908,0.65814 0.793358,1.12738 3.072642,0.8119 1.536439,2.8288 -0.636222,1.68985 -3.391822,0.66595 -3.547385,0.49706 0.458256,1.56263 1.846044,3.86712 -0.583546,4.77214 1.090879,1.05985 1.17216,2.6121 1.819161,3.9189 -0.691711,1.92233 -1.742073,3.76155 -3.101711,5.25442 -1.958016,1.03733 -3.536907,-0.97332 -4.099815,-2.52587 -2.229837,1.76087 -4.635141,-1.55625 -3.34735,-3.31318 -1.695353,1.06372 -3.449722,-0.60348 -3.765913,-2.10257 -1.298631,-1.69125 -3.228302,1.0887 -4.694159,-0.96612 -1.246309,0.67957 -4.323681,0.24182 -3.967866,-2.17207 0.366546,-1.87892 2.788956,-2.71671 4.442305,-2.68768 1.261354,1.3822 2.812996,0.36429 3.543727,-1.06453 1.05621,-0.12328 1.305758,-2.01111 2.189865,-1.95426 -1.305036,2.03556 0.02362,5.91035 2.907834,4.50202 0.724207,0.32317 0.516341,2.17334 1.922214,2.12768 1.652967,0.64545 2.656561,-1.12809 3.189738,-2.16522 2.22937,-0.93829 1.422652,-3.62594 -0.258768,-4.53134 -0.625319,-0.83235 -1.115004,-0.20237 -0.519762,-1.27929" clip-path="url(#pd9700eb583)" style="fill:#8c564b;stroke:#000000;stroke-width:0.7;stroke-linejoin:miter" id="path35"/>
      </g>
    </g>
  </g>
  <defs id="defs43">
    <clipPath id="pd9700eb583">
      <rect x="0" y="-0" width="357.12" height="235.831051" id="rect40"/>
    </clipPath>
  </defs>
</svg>